<svg width="33" height="32" viewBox="0 0 33 32" fill="none" xmlns="http://www.w3.org/2000/svg">
<g clip-path="url(#clip0_3_353)">
<rect x="0.0993652" width="32" height="32" rx="4" fill="#CCCCCC"/>
<g clip-path="url(#clip1_3_353)" filter="url(#filter0_d_3_353)">
<path d="M21.5994 12C21.5994 12 23.0994 13.5 23.0994 16C23.0994 18.5 21.5994 20 21.5994 20M24.5994 9C24.5994 9 27.0994 11.5 27.0994 16C27.0994 20.5 24.5994 23 24.5994 23M10.5994 12C10.5994 12 9.09937 13.5 9.09937 16C9.09937 18.5 10.5994 20 10.5994 20M7.59937 9C7.59937 9 5.09937 11.5 5.09937 16C5.09937 20.5 7.59937 23 7.59937 23" stroke="#FFBF35" stroke-width="2" stroke-linecap="round" stroke-linejoin="round"/>
<path d="M16.0994 17C16.3646 17 16.6189 16.8946 16.8065 16.7071C16.994 16.5196 17.0994 16.2652 17.0994 16C17.0994 15.7348 16.994 15.4804 16.8065 15.2929C16.6189 15.1054 16.3646 15 16.0994 15C15.8341 15 15.5798 15.1054 15.3923 15.2929C15.2047 15.4804 15.0994 15.7348 15.0994 16C15.0994 16.2652 15.2047 16.5196 15.3923 16.7071C15.5798 16.8946 15.8341 17 16.0994 17Z" fill="#FFBF35" stroke="#FFBF35" stroke-width="2" stroke-linecap="round" stroke-linejoin="round"/>
</g>
</g>
<defs>
<filter id="filter0_d_3_353" x="0.0993652" y="4" width="32" height="32" filterUnits="userSpaceOnUse" color-interpolation-filters="sRGB">
<feFlood flood-opacity="0" result="BackgroundImageFix"/>
<feColorMatrix in="SourceAlpha" type="matrix" values="0 0 0 0 0 0 0 0 0 0 0 0 0 0 0 0 0 0 127 0" result="hardAlpha"/>
<feOffset dy="4"/>
<feGaussianBlur stdDeviation="2"/>
<feComposite in2="hardAlpha" operator="out"/>
<feColorMatrix type="matrix" values="0 0 0 0 0 0 0 0 0 0 0 0 0 0 0 0 0 0 0.25 0"/>
<feBlend mode="normal" in2="BackgroundImageFix" result="effect1_dropShadow_3_353"/>
<feBlend mode="normal" in="SourceGraphic" in2="effect1_dropShadow_3_353" result="shape"/>
</filter>
<clipPath id="clip0_3_353">
<rect x="0.0993652" width="32" height="32" rx="4" fill="white"/>
</clipPath>
<clipPath id="clip1_3_353">
<rect width="24" height="24" fill="white" transform="translate(4.09937 4)"/>
</clipPath>
</defs>
</svg>


